<?xml version="1.0" standalone="no"?>
<!DOCTYPE svg PUBLIC "-//W3C//DTD SVG 1.1//EN" "http://www.w3.org/Graphics/SVG/1.1/DTD/svg11.dtd" >
<svg xmlns="http://www.w3.org/2000/svg">
<metadata>
<json>
<![CDATA[
{
	"fontFamily": "fontguirid",
	"majorVersion": 1,
	"minorVersion": 0,
	"version": "Version 1.0",
	"fontId": "fontguirid",
	"psName": "fontguirid",
	"subFamily": "Regular",
	"fullName": "fontguirid",
	"description": "Font generated by IcoMoon."
}
]]>
</json>
</metadata>
<defs>
<font id="fontguirid" horiz-adv-x="1024">
<font-face units-per-em="1024" ascent="960" descent="-64" />
<missing-glyph horiz-adv-x="1024" />
<glyph unicode="&#x20;" horiz-adv-x="512" d="" />
<glyph unicode="&#xe900;" glyph-name="heart" data-tags="heart" horiz-adv-x="1131" d="M565.581-64l-23.814 23.814c-65.488 65.488-125.023 119.070-178.605 172.651-220.279 208.372-363.163 351.256-363.163 529.86v11.907c0 77.395 35.721 148.837 89.302 202.419 59.535 53.581 130.977 83.349 208.372 83.349 107.163 0 208.372-53.581 267.907-142.884 59.535 89.302 160.744 142.884 267.907 142.884h11.907c77.395 0 148.837-35.721 202.419-89.302 53.581-59.535 83.349-130.977 83.349-208.372 0-178.605-142.884-315.535-363.163-529.86-53.581-53.581-113.116-113.116-178.605-172.651l-23.814-23.814zM291.721 900.465c-59.535 0-119.070-23.814-160.744-65.488-47.628-41.674-71.442-101.209-71.442-160.744v-11.907c0-154.791 136.93-285.767 345.302-488.186 47.628-47.628 101.209-101.209 160.744-154.791 53.581 53.581 107.163 107.163 160.744 154.791 208.372 202.419 345.302 333.395 345.302 488.186 0 65.488-23.814 119.070-65.488 166.698s-101.209 71.442-160.744 71.442h-11.907c-107.163 0-202.419-65.488-238.14-160.744l-29.767-65.488-29.767 65.488c-41.674 95.256-130.977 160.744-244.093 160.744 5.953 0 0 0 0 0z" />
<glyph unicode="&#xe901;" glyph-name="eye-o" data-tags="eye" horiz-adv-x="1639" d="M819.2 960c-357.551-1.576-666.656-207.407-816.797-506.762l-2.403-5.288c151.449-305.618 461.245-512.032 819.251-512.032s667.802 206.415 816.867 506.725l2.383 5.307c-152.56 304.674-461.712 510.516-819.094 512.050l-0.207 0.001zM1223.125 688.42c96.983-62.621 177.003-143.061 237.282-237.342l1.871-3.129c-62.152-97.407-142.171-177.847-236.103-238.621l-3.050-1.849c-114.285-73.953-253.971-117.914-403.925-117.914s-289.64 43.961-406.874 119.698l2.949-1.784c-96.981 62.624-177.001 143.064-237.282 237.342l-1.871 3.128c62.203 97.423 142.291 177.867 236.298 238.619l3.058 1.851c6.283 3.952 12.566 7.904 18.95 11.654-15.533-41.527-24.523-89.514-24.523-139.6 0-226.216 183.384-409.6 409.6-409.6s409.6 183.384 409.6 409.6c0 50.086-8.99 98.073-25.444 142.435l0.921-2.835q9.12-5.675 18.646-11.654zM819.2 611.1c0-84.845-68.78-153.625-153.625-153.625s-153.625 68.78-153.625 153.625c0 84.845 68.78 153.625 153.625 153.625v0c84.809 0 153.568-68.723 153.625-153.518v-0.006z" />
<glyph unicode="&#xe902;" glyph-name="cog" data-tags="cog" d="M466.546-64c-0.037 0-0.081 0-0.125 0-31.231 0-57.168 22.67-62.252 52.451l-0.053 0.374-11.95 72.146c-26.145 8.204-48.511 17.673-69.749 28.98l2.182-1.060-60.084-42.774c-10.081-7.364-22.721-11.783-36.393-11.783-0.064 0-0.128 0-0.193 0h0.010c-0.024 0-0.052 0-0.080 0-17.437 0-33.213 7.11-44.587 18.59l-0.005 0.005-63.77 63.435c-11.526 11.436-18.661 27.283-18.661 44.797 0 13.784 4.42 26.536 11.92 36.915l-0.127-0.185 42.104 58.632c-10.89 19.705-20.829 42.712-28.539 66.718l-0.778 2.803-72.592 12.397c-30.133 5.185-52.769 31.121-52.769 62.343 0 0.030 0 0.061 0 0.091v-0.005 90.070c0 0.054 0 0.117 0 0.18 0 31.231 22.67 57.168 52.452 62.252l0.373 0.053 70.973 12.006c8.149 26.975 17.804 50.158 29.463 72.115l-1.040-2.147-42.774 59.973c-7.331 10.2-11.724 22.94-11.724 36.706 0 17.509 7.106 33.358 18.591 44.82l63.882 63.715c11.441 11.502 27.279 18.62 44.78 18.62 13.765 0 26.502-4.404 36.878-11.88l-0.187 0.128 58.8-42.327c19.689 10.889 42.678 20.828 66.665 28.538l2.8 0.778 12.397 72.592c5.089 30.209 31.052 52.937 62.323 52.937 0.057 0 0.114 0 0.171 0h90.006c0.037 0 0.081 0 0.125 0 31.231 0 57.168-22.67 62.252-52.451l0.053-0.374 11.95-71.029c27.822-8.471 51.759-18.56 74.391-30.758l-2.133 1.051 59.414 42.327c10.081 7.364 22.721 11.783 36.393 11.783 0.064 0 0.128 0 0.193 0h-0.010c0.024 0 0.052 0 0.080 0 17.437 0 33.213-7.11 44.587-18.59l63.719-63.775c11.526-11.436 18.661-27.283 18.661-44.797 0-13.784-4.42-26.536-11.92-36.915l0.127 0.185-42.327-59.247c10.607-19.713 20.329-42.809 27.87-66.87l0.777-2.874 71.867-12.173c29.889-5.007 52.384-30.684 52.384-61.616 0-0.306-0.002-0.611-0.007-0.915l0.001 0.046v-90.015c0-0.054 0-0.117 0-0.18 0-31.231-22.67-57.168-52.452-62.252l-0.373-0.053-71.867-12.006c-8.374-26.922-18.168-50.014-29.925-71.895l1.056 2.15 42.327-59.47c7.331-10.2 11.724-22.94 11.724-36.706 0-17.509-7.106-33.358-18.591-44.82l-63.715-63.771c-11.441-11.502-27.279-18.62-44.78-18.62-13.765 0-26.502 4.404-36.878 11.88l0.187-0.128-59.247 42.327c-19.703-10.678-42.775-20.471-66.816-28.084l-2.873-0.785-12.173-71.867c-5.137-30.155-31.074-52.825-62.305-52.825-0.044 0-0.088 0-0.131 0h0.007zM337.387 146.909c25.221-14.828 54.376-27.13 85.184-35.394l2.485-0.567c10.963-2.89 19.248-11.83 21.14-22.948l0.024-0.169 14.965-89.847c0.445-2.676 2.744-4.691 5.512-4.691 0.025 0 0.050 0 0.076 0.001h90.011c0.021 0 0.047 0 0.072 0 2.769 0 5.067 2.015 5.508 4.658l0.004 0.033 15.189 89.847c1.83 11.327 10.155 20.308 20.967 23.075l0.196 0.043c33.903 8.908 63.631 21.661 90.88 38.105l-1.536-0.86c4.211 2.539 9.296 4.041 14.731 4.041 6.264 0 12.063-1.995 16.794-5.385l-0.087 0.059 74.212-52.825c0.869-0.662 1.97-1.061 3.164-1.061 0.007 0 0.013 0 0.020 0h-0.001c0.010 0 0.022 0 0.034 0 1.589 0 3.023 0.664 4.040 1.729l63.716 63.772c1.033 1.014 1.674 2.426 1.674 3.986 0 1.229-0.397 2.366-1.071 3.289l0.011-0.016-52.825 74.435c-3.324 4.648-5.315 10.446-5.315 16.71 0 5.433 1.498 10.516 4.103 14.859l-0.073-0.131c15.586 25.796 28.324 55.622 36.655 87.237l0.535 2.387c2.89 10.963 11.83 19.248 22.948 21.14l0.169 0.024 89.791 14.965c2.676 0.445 4.691 2.744 4.691 5.512 0 0.025 0 0.050-0.001 0.076v-0.004 90.070c0 0.021 0 0.047 0 0.072 0 2.769-2.015 5.067-4.658 5.508l-0.033 0.004-89.791 15.189c-11.327 1.83-20.308 10.155-23.075 20.967l-0.043 0.196c-8.868 34.002-21.605 63.828-38.052 91.17l0.863-1.547c-2.533 4.212-4.031 9.295-4.031 14.728 0 6.264 1.991 12.062 5.374 16.798l-0.060-0.088 53.104 74.212c0.648 0.9 1.037 2.025 1.037 3.241 0 1.577-0.654 3.001-1.705 4.017l-0.002 0.002-63.49 63.77c-1.019 1.067-2.453 1.731-4.042 1.731-0.012 0-0.024 0-0.036 0h0.002c-1.194-0.068-2.285-0.454-3.205-1.075l0.023 0.014-73.765-53.048c-4.648-3.324-10.446-5.315-16.71-5.315-5.433 0-10.516 1.498-14.859 4.103l0.131-0.073c-26.41 15.859-56.959 28.762-89.338 37.11l-2.408 0.527c-11.084 2.899-19.464 11.933-21.363 23.171l-0.024 0.17-14.965 89.345c-0.445 2.676-2.744 4.691-5.512 4.691-0.025 0-0.050 0-0.076-0.001h-90.011c-0.021 0-0.047 0-0.072 0-2.769 0-5.067-2.015-5.508-4.658l-0.004-0.033-15.412-90.461c-2.063-11.218-10.282-20.089-20.957-23.069l-0.206-0.049c-33.908-8.988-63.633-21.872-90.834-38.482l1.49 0.845c-4.279-2.591-9.449-4.123-14.977-4.123-6.218 0-11.984 1.94-16.724 5.247l0.095-0.063-73.765 52.602c-0.869 0.662-1.97 1.061-3.164 1.061-0.007 0-0.013 0-0.020 0h0.001c-0.010 0-0.022 0-0.034 0-1.589 0-3.023-0.664-4.040-1.729l-63.772-63.716c-1.033-1.014-1.674-2.426-1.674-3.986 0-1.229 0.397-2.366 1.071-3.289l-0.011 0.016 53.216-74.882c3.393-4.643 5.429-10.465 5.429-16.762 0-5.327-1.457-10.314-3.994-14.584l0.072 0.132c-15.401-25.865-27.943-55.784-36.060-87.476l-0.515-2.371c-2.891-11.070-11.901-19.443-23.114-21.363l-0.171-0.024-89.345-14.965c-2.676-0.445-4.691-2.744-4.691-5.512 0-0.025 0-0.050 0.001-0.076v0.004-90.070c0-0.021 0-0.047 0-0.072 0-2.769 2.015-5.067 4.658-5.508l0.033-0.004 90.461-15.412c11.224-2.050 20.101-10.274 23.069-20.958l0.049-0.206c8.993-33.909 21.876-63.633 38.482-90.836l-0.846 1.491c2.532-4.246 4.028-9.364 4.028-14.831 0-6.303-1.989-12.142-5.374-16.922l0.061 0.091-52.602-73.821c-0.662-0.907-1.060-2.043-1.060-3.273 0-1.561 0.64-2.972 1.673-3.986l0.001-0.001 63.881-63.77c1.019-1.067 2.453-1.731 4.042-1.731 0.012 0 0.024 0 0.036 0h-0.002c1.194 0.068 2.285 0.454 3.205 1.075l-0.023-0.014 74.826 53.272c4.608 3.486 10.435 5.584 16.752 5.584v0c5.346-0.1 10.321-1.601 14.598-4.151l-0.136 0.075zM290.984 448.112c0.064 121.923 98.917 220.737 220.848 220.737 121.971 0 220.849-98.877 220.849-220.849s-98.877-220.849-220.849-220.849v0c-121.959 0.127-220.785 98.992-220.849 220.954v0.006zM348.723 448.112c0.032-90.090 73.071-163.11 163.165-163.11 90.114 0 163.165 73.052 163.165 163.165s-73.052 163.165-163.165 163.165c0 0 0 0 0 0v0c-90.108-0.064-163.134-73.109-163.165-163.218v-0.003z" />
<glyph unicode="&#xe903;" glyph-name="throphy" data-tags="Shape -1" horiz-adv-x="884" d="M203.368-64c-12.621 0-22.852 10.231-22.852 22.852v0 160.007c0 12.621 10.231 22.852 22.852 22.852v0h63.826v68.025s0 0.221 0 0.354v0s0 0 0 0.309 0 1.282 0 1.945 0 0.309 0 0.486 0 1.149 0.265 1.724v0.707c0 0.486 0.221 0.972 0.354 1.414l0.309 0.84c0 0.398 0.265 0.796 0.442 1.193l0.398 0.928 0.53 1.061 0.486 0.884 0.619 1.017 0.53 0.751 0.796 1.017 0.53 0.619 0.928 1.017 0.53 0.53 1.061 0.972 1.724 1.326 0.663 0.442 1.149 0.707 1.945 0.972 1.149 0.442 1.326 0.619 1.414 0.398h0.663c48.955 11.532 84.834 54.843 84.834 106.533 0 2.952-0.117 5.877-0.347 8.771l0.024-0.382c-104.777 27.91-185.18 110.034-210.168 213.754l-0.405 1.99c-94.022 40.5-158.692 132.279-158.902 239.188v0.027c0 12.621 10.231 22.852 22.852 22.852v0h128.492v112.005c0 12.621 10.231 22.852 22.852 22.852h535.404c12.621 0 22.852-10.231 22.852-22.852v-112.005h128.669c0.013 0 0.029 0 0.044 0 12.621 0 22.852-10.231 22.852-22.852 0 0 0 0 0 0v0c-0.212-107.018-64.984-198.856-157.432-238.656l-1.69-0.647c-25.265-104.854-104.636-186.444-206.225-214.466l-2.049-0.482c-0.237-2.7-0.373-5.841-0.373-9.013 0-51.683 35.913-94.979 84.146-106.293l0.739-0.146 1.989-0.53h0.221l1.856-0.751h0.309l1.68-0.884h0.354l1.547-0.972 0.309-0.221 1.459-1.149h0.221l1.414-1.37c3.833-4.064 6.188-9.558 6.188-15.602 0 0 0 0 0-0.001v0-68.555h63.959c12.621 0 22.852-10.231 22.852-22.852v0-160.007c0-12.621-10.231-22.852-22.852-22.852v0zM226.22-18.296h434.096v114.303h-434.273zM313.030 141.711h260.299v45.704h-260.475zM391.221 255.439c-5.409-8.288-11.114-15.51-17.399-22.178l0.073 0.078h138.57c-25.959 27.697-41.903 65.054-41.903 106.135 0 0.152 0 0.304 0.001 0.456v-0.024q-14.144-1.37-28.642-1.414c-8.84 0-17.68 0.442-26.52 1.193 0.005-0.45 0.007-0.982 0.007-1.514 0-30.718-9.017-59.33-24.55-83.334l0.364 0.601zM197.091 628.98c0-135.227 109.623-244.85 244.85-244.85s244.85 109.623 244.85 244.85v0 0 285.316h-489.701zM732.496 628.185s0 0 0-0.265q0-5.171-0.221-10.299c57.305 34.042 96.994 92.573 104.71 160.794l0.090 0.981h-104.579zM151.653 617.709c0 3.403 0 6.807-0.221 10.21 0 0 0 0 0 0.265v151.255h-104.491c7.807-69.167 47.457-127.674 103.726-161.187l0.986-0.544zM372.259 16.003c-12.621 0-22.852 10.231-22.852 22.852s10.231 22.852 22.852 22.852h141.443c12.621 0 22.852-10.231 22.852-22.852s-10.231-22.852-22.852-22.852v0zM358.071 548.004c-5.61 4.211-9.2 10.849-9.2 18.326 0 1.428 0.131 2.825 0.382 4.181l-0.022-0.141 11.581 67.671-49.151 47.914c-4.265 4.156-6.91 9.955-6.91 16.373 0 11.456 8.43 20.944 19.426 22.597l0.126 0.016 67.892 9.857 30.41 61.66c3.818 7.602 11.554 12.728 20.487 12.728s16.669-5.126 20.427-12.597l0.060-0.131 30.366-61.572 67.892-9.857c11.233-1.564 19.786-11.106 19.786-22.645 0-6.446-2.669-12.268-6.961-16.422l-0.006-0.006-49.284-47.914 11.581-67.671c0.209-1.16 0.328-2.496 0.328-3.859 0-12.621-10.231-22.852-22.852-22.852-3.886 0-7.546 0.97-10.75 2.681l0.123-0.060-60.732 31.957-60.732-31.957c-3.115-1.696-6.822-2.693-10.762-2.693-5.080 0-9.772 1.657-13.566 4.461l0.062-0.044zM453.721 624.074l30.41-16.001-5.79 33.858c-0.21 1.162-0.329 2.5-0.329 3.866 0 6.42 2.648 12.222 6.91 16.373l0.005 0.005 24.576 24.001-33.99 4.95c-7.589 1.139-13.869 5.87-17.134 12.377l-0.060 0.132-15.205 30.941-15.205-30.941c-3.325-6.638-9.605-11.37-17.068-12.493l-0.126-0.016-33.99-4.95 24.576-24.001c4.268-4.156 6.915-9.958 6.915-16.378 0-1.366-0.12-2.704-0.35-4.004l0.020 0.138-5.614-33.637 30.189 15.78c3.082 1.652 6.743 2.623 10.63 2.623s7.548-0.971 10.753-2.683l-0.123 0.060z" />
<glyph unicode="&#xe904;" glyph-name="heart-o" data-tags="path" horiz-adv-x="1152" d="M576 768c-49.045 113.095-159.302 190.979-287.87 191.999l-0.13 0.001c-1.674 0.036-3.646 0.056-5.624 0.056-155.983 0-282.432-126.449-282.432-282.432 0-1.978 0.020-3.95 0.061-5.918l-0.005 0.294c0-225.856 242.752-400.512 576-736 333.248 335.488 576 510.144 576 736 0.036 1.674 0.056 3.646 0.056 5.624 0 155.983-126.449 282.432-282.432 282.432-1.978 0-3.95-0.020-5.918-0.061l0.294 0.005c-128.708-0.985-238.982-78.884-287.211-189.961l-0.789-2.039z" />
<glyph unicode="&#xe905;" glyph-name="lotus" data-tags="Op component 1" horiz-adv-x="1251" d="M1241.415 238.315c-53.998 60.231-119.657 108.804-193.573 142.378l-3.654 1.486c36.388 63.932 57.839 140.463 57.839 222.004 0 0.471-0.001 0.942-0.002 1.413v-0.073 78.789c0.012 0.355 0.019 0.771 0.019 1.19 0 20.541-16.262 37.284-36.614 38.057l-0.070 0.002h-73.296c-0.129 0-0.282 0-0.435 0-71.905 0-139.122-20.075-196.351-54.925l1.669 0.944c-27.47 107.95-77.954 201.637-146.157 279.397l0.656-0.763c-6.416 7.155-15.689 11.636-26.008 11.636s-19.593-4.481-25.979-11.604l-0.029-0.033c-67.545-76.997-118.029-170.684-144.493-273.993l-1.008-4.641c-55.56 33.906-122.776 53.981-194.681 53.981-0.076 0-0.153 0-0.229 0h-73.321c-20.425-0.772-36.69-17.516-36.69-38.059 0-0.469 0.008-0.937 0.025-1.402l-0.002 0.067v-78.752c-0.001-0.398-0.002-0.869-0.002-1.34 0-81.541 21.45-158.072 59.016-224.258l-1.177 2.254c-77.552-35.027-143.199-83.564-196.71-143.211l-0.48-0.544c-5.982-7.151-9.615-16.447-9.615-26.59s3.633-19.439 9.668-26.656l-0.053 0.066c5.893-6.948 146.629-170.382 322.758-170.382 55.823 1.004 108.109 15.205 154.164 39.602l-1.86-0.899c34.044-44.561 74.797-81.945 121.131-111.317l1.89-1.119c5.099-3.148 11.28-5.014 17.897-5.014s12.798 1.865 18.045 5.099l-0.149-0.085c48.224 30.492 88.977 67.876 122.203 111.322l0.818 1.114c44.194-23.499 96.48-37.701 151.989-38.699l0.314-0.004c176.093 0 316.829 163.434 322.758 170.382 5.916 7.13 9.506 16.375 9.506 26.459 0 10.204-3.676 19.549-9.775 26.784l0.051-0.062zM625.582 860.332c63.476-80.75 103.882-182.313 109.833-293.032l0.056-1.317c-6.187-112.028-46.603-213.555-110.862-295.49l0.863 1.142c-63.478 80.749-103.884 182.313-109.833 293.033l-0.056 1.316c6.147 112.092 46.569 213.689 110.861 295.672l-0.863-1.142zM332.324 93.541c-104.652 0-198.936 76.388-242.732 118.11 45.256 44.451 99.551 79.87 159.856 103.229l3.215 1.095c66.859-81.263 164.694-134.936 275.192-142.846l1.26-0.072c-52.869-45.713-121.027-75.045-195.885-79.474l-0.905-0.043zM222.362 605.523v39.394h36.666c0.006 0 0.014 0 0.021 0 69.076 0 132.888-22.535 184.486-60.654l-0.849 0.599q-0.4-9.312-0.4-18.733c4.291-118.457 43.236-227.032 106.926-316.821l-1.219 1.811c-179.948 2.474-325.631 160.488-325.631 354.404zM625.545 21.773c-28.948 20.483-53.97 43.772-75.573 69.985l-0.524 0.656c28.266 20.15 53.114 41.109 76.153 63.893l-0.056-0.055c22.983-22.73 47.831-43.688 74.254-62.586l1.843-1.253c-22.126-26.869-47.148-50.159-74.908-69.841l-1.189-0.8zM808.804 566.129q0 9.421-0.4 18.733c38.638 28.027 84.968 47.957 135.213 56.305l1.885 0.259c13.526 2.317 29.105 3.642 44.994 3.642 0.551 0 1.101-0.002 1.651-0.005h36.546v-39.394c0-193.917-145.501-351.967-325.631-354.404 62.464 87.946 101.418 196.479 105.713 313.859l0.030 1.042zM918.766 93.505c-75.588 4.819-143.539 34.084-196.871 79.889l0.445-0.373c111.643 8.055 209.359 61.699 275.62 142.205l0.541 0.677c63.535-24.474 117.842-59.917 163.174-104.463l-0.068 0.066c-43.687-41.759-137.717-117.965-242.841-117.965z" />
<glyph unicode="&#xe906;" glyph-name="arrow-left" data-tags="Icon" d="M1024 512h-780.8l358.4 358.4-89.6 89.6-512-512 512-512 89.6 89.6-358.4 358.4h780.8z" />
<glyph unicode="&#xe907;" glyph-name="arrow-top" data-tags="Icon-1" horiz-adv-x="1661" d="M1466.811-64l193.73 193.73-830.27 830.27-830.27-830.27 193.73-193.73 636.541 636.541z" />
<glyph unicode="&#xe908;" glyph-name="bookmark-o" data-tags="ic_bookmark" horiz-adv-x="796" d="M682.667 960h-568.889c-62.76-0.193-113.584-51.018-113.778-113.759v-910.241l398.222 170.667 398.222-170.667v910.222c-0.193 62.76-51.018 113.584-113.759 113.778h-0.019z" />
<glyph unicode="&#xe909;" glyph-name="bookmark" data-tags="ic_bookmark-1" horiz-adv-x="796" d="M113.778 903.111c-31.368 0-56.889-25.52-56.889-56.889v-823.948l318.924 136.681c7.155 3.067 14.783 4.6 22.41 4.6s15.255-1.533 22.41-4.6l318.924-136.681v823.948c0 31.369-25.521 56.889-56.889 56.889h-568.889zM113.778 960h568.889c62.578 0 113.778-51.2 113.778-113.778v-910.222l-398.222 170.667-398.222-170.667v910.222c0 62.578 51.2 113.778 113.778 113.778z" />
<glyph unicode="&#xe90a;" glyph-name="certificate" data-tags="Group 1165" d="M498.162 489.514c-94.097 0-171.589-77.492-177.124-171.589 0-49.816 22.141-99.632 60.886-132.843v-188.195c0-22.141 16.605-38.746 38.746-38.746 5.535 0 11.070 0 16.605 5.535l60.886 27.676 55.351-27.676c16.605-5.535 44.281 0 49.816 22.141 0 5.535 5.535 11.070 5.535 16.605v182.659c71.957 60.886 83.027 171.589 22.141 243.546-33.211 38.746-83.027 60.886-132.843 60.886v0zM531.373 57.773l-22.141 11.070c-11.070 5.535-22.141 5.535-27.676 0l-22.141-11.070v88.562c27.676-5.535 49.816-5.535 77.492 0l-5.535-88.562zM498.162 218.292c-55.351 0-99.632 44.281-99.632 99.632s44.281 94.097 99.632 94.097c55.351 0 99.632-44.281 99.632-99.632-5.535-49.816-49.816-94.097-99.632-94.097v0zM963.114 356.67h-132.843v453.881c0 66.422-55.351 121.773-121.773 121.773h-531.373c-83.027 0-149.449-66.422-149.449-149.449v-77.492c0-22.141 16.605-38.746 38.746-38.746h94.097v-431.741c0-60.886 38.746-116.238 94.097-138.378 22.141-5.535 44.281 0 49.816 22.141s0 44.281-22.141 49.816c-27.676 11.070-44.281 38.746-44.281 71.957v426.205h381.924c22.141 0 38.746 16.605 38.746 38.746v0 105.168c0 27.676 22.141 44.281 44.281 44.281h5.535c27.676 0 44.281-22.141 44.281-44.281v-608.865c0-16.605 5.535-33.211 11.070-44.281h-44.281c-22.141 0-38.746-16.605-38.746-38.746s16.605-38.746 38.746-38.746c0 0 0 0 0 0h154.984c66.422 0 121.773 55.351 121.773 121.773v116.238c0 22.141-16.605 38.746-33.211 38.746zM581.189 810.551v-71.957h-476.022v44.281c0 44.281 33.211 77.492 77.492 77.492h409.6c-5.535-16.605-11.070-33.211-11.070-49.816zM924.368 201.686c0-27.676-22.141-44.281-44.281-44.281h-5.535c-27.676 0-44.281 22.141-44.281 44.281v77.492h94.097v-77.492z" />
<glyph unicode="&#xe90b;" glyph-name="eye" data-tags="Group 1164" horiz-adv-x="1762" d="M1731.512 489.059c-69.474 88.445-146.744 165.715-232.261 232.969l-2.927 2.219c-165.529 140.276-379.43 228.091-613.611 235.609l-1.588 0.040c-235.897-7.476-449.936-95.305-617.018-236.855l1.46 1.206c-88.486-69.472-165.789-146.742-233.074-232.265l-2.217-2.924-30.276-41.085 30.276-40.983c69.504-88.443 146.806-165.713 232.356-232.965l2.935-2.224c165.582-140.313 379.562-228.136 613.826-235.61l1.578-0.040c235.842 7.509 449.823 95.333 616.864 236.856l-1.46-1.206c88.423 69.46 165.675 146.713 232.918 232.209l2.22 2.928 30.276 40.983zM881.125 89.326c-186.173 7.261-334.347 159.943-334.347 347.232 0 3.997 0.067 7.977 0.201 11.941l-0.015-0.577c-0.001 0.36-0.002 0.785-0.002 1.21 0 31.452 3.792 62.019 10.943 91.267l-0.542-2.623-76.279 13.78c-7.261-30.993-11.424-66.58-11.424-103.14 0-0.138 0-0.276 0-0.414v0.021c-0.006-0.86-0.009-1.876-0.009-2.893 0-125.095 50.38-238.424 131.958-320.803l-0.036 0.036c-99.4 40.996-185.179 92.047-262.214 153.586l2.129-1.643c-66.641 52.661-125.759 108.92-179.364 170.13l-1.318 1.536c54.911 62.767 114.012 119.042 177.852 169.594l2.778 2.123c74.906 59.913 160.685 110.981 253.047 149.399l7.038 2.595 51.228-61.935c58.031 59.47 138.838 96.487 228.293 96.923h0.082c186.173-7.261 334.347-159.943 334.347-347.232 0-3.997-0.067-7.977-0.201-11.941l0.015 0.577c0.122-3.433 0.191-7.468 0.191-11.518 0-187.291-148.177-339.974-333.694-347.212l-0.658-0.020zM1420.609 276.309c-74.921-59.898-160.718-110.95-253.097-149.349l-7.039-2.593c81.542 82.342 131.922 195.671 131.922 320.766 0 1.017-0.003 2.034-0.010 3.050l0.001-0.156c0.005 0.814 0.008 1.776 0.008 2.739 0 125.172-50.442 238.562-132.107 320.953l0.033-0.033c99.421-41.008 185.217-92.077 262.265-153.637l-2.128 1.643c66.619-52.675 125.72-108.95 179.307-170.174l1.323-1.543c-54.909-62.749-114.010-119.008-177.85-169.542l-2.781-2.124zM668.272 517.696c-6.146-20.845-9.682-44.793-9.682-69.566 0-0.055 0-0.109 0-0.164v0.009c8.464-116.145 104.772-207.167 222.338-207.167 123.101 0 222.894 99.793 222.894 222.894s-99.793 222.894-222.894 222.894c-0.003 0-0.006 0-0.009 0h0.001c-60.601-0.321-115.19-25.796-153.907-66.507l-0.085-0.090 109.68-132.681z" />
<glyph unicode="&#xe90c;" glyph-name="guirid" data-tags="Group 1163" horiz-adv-x="850" d="M849.863 362.8h-399.259v240.863c69.62 17.154 169.923-44.211 171.571-145.177h-29.697c-3.96 35.324-18.146 66.652-46.194 89.086-16.904 14.627-38.5 24.252-62.257 26.364l-0.422 0.030v-178.172h333.246c-2.968 126.040-88.094 280.78-254.088 343.143-29.016-54.108-72.899-85.126-135.255-85.783-62.692-0.657-107.895 28.377-138.577 82.486-116.8-34.649-246.8-169.266-254.057-339.846h343.143v174.875c-50.818 5.609-99.646-43.22-112.171-112.171h-29.71c-5.28 63.677 61.037 158.706 174.868 145.177v-240.876h-405.828c-9.569 22.434-3.632 47.514 0 69.285 25.737 156.729 112.511 264.952 257.36 329.949 9.24 4.289 14.873 8.249 13.2 19.794-13.2 82.845 37.94 159.034 118.777 174.875 3.632 0.657 6.272 2.312 9.916 3.297h36.291c4.617-1.32 11.546-2.312 16.497-3.297 76.202-16.169 130.645-93.374 118.765-168.256-2.312-13.857 0.992-17.817 13.2-23.097 135.937-60.052 221.72-161.674 254.088-306.846 3.632-17.154 3.632-35.634 6.6-52.788zM424.203 686.149c0.479-0.007 1.044-0.011 1.611-0.011 65.946 0 119.517 52.979 120.474 118.698l0.001 0.090c-0.693 67.146-54.94 121.393-122.020 122.086l-0.066 0.001c-0.146 0.001-0.318 0.001-0.491 0.001-67.156 0-121.597-54.441-121.597-121.597 0-0.172 0-0.345 0.001-0.517v0.026c-0.322-65.989 55.441-118.448 122.086-118.777zM849.838 295.69c-11.298-35.411-18.939-67.848-33.23-99.286-68.79-150.594-186.414-240.938-352.234-258.147-222.637-22.508-418.025 126.096-461.889 344.196-4.338 21.182-5.317 21.845 16.615 23.165 129.926 9.6 258.191-4.958 378.814-56.265 3.942-1.572 8.511-2.483 13.293-2.483s9.351 0.911 13.542 2.57l-0.249-0.087c106.996 43.021 217.654 57.257 332.292 52.956 28.576-0.998 58.484-3.954 93.046-6.619zM603.937 14.371c-2.993 5.627-4.338 8.273-6.643 13.237-40.679 75.033-100.873 134.992-173.848 174.268l-2.266 1.115c-89.055 47.992-182.429 67.848-282.447 72.812-32.895 1.655-66.125 0-99.689 0 51.834-249.508 337.937-383.221 564.894-261.432zM806.637 269.227c-124.28 10.92-241.247 0.663-358.878-43.021 80.563-46.672 144.349-114.47 184.874-195.883l1.212-2.69c89.055 58.23 145.239 137.654 172.792 241.594z" />
<glyph unicode="&#xe90d;" glyph-name="course" data-tags="Forma -15" horiz-adv-x="1058" d="M35.248-64c-0.011 0-0.024 0-0.037 0-19.447 0-35.212 15.765-35.212 35.212 0 0.013 0 0.026 0 0.039v-0.002 953.54c0 19.447 15.765 35.212 35.212 35.212 0.013 0 0.026 0 0.039 0h987.868c19.447 0 35.212-15.765 35.212-35.212v0-953.54c0-19.447-15.765-35.212-35.212-35.212v0zM70.46 6.386h917.447v243.948h-917.447zM70.46 320.721h74.866c-0.286 8.979-0.448 19.539-0.448 30.136 0 54.565 4.315 108.122 12.623 160.349l-0.755-5.762c5.595 37.343 22.784 69.927 47.724 94.722l0.008 0.008c-19.536 25.245-31.316 57.353-31.316 92.212 0 83.627 67.793 151.421 151.421 151.421s151.421-67.793 151.421-151.421c0-14.742-2.107-28.992-6.036-42.466l0.267 1.070 70.276 41.637c5.131 3.084 11.324 4.908 17.943 4.908 9.725 0 18.529-3.938 24.907-10.306v0l6.829-6.829 208.406 156.341c5.809 4.39 13.152 7.031 21.112 7.031 19.447 0 35.212-15.765 35.212-35.212 0-11.487-5.5-21.689-14.010-28.116l-0.089-0.064-200.254-150.209 0.955-0.955c6.402-6.377 10.364-15.2 10.364-24.949s-3.962-18.572-10.363-24.948l-0.001-0.001-135.155-134.054v-124.434h481.543v568.746h-917.447zM225.773 491.381c-6.656-42.573-10.459-91.673-10.459-141.662 0-10.184 0.158-20.332 0.471-30.44l-0.036 1.478h220.082v139.157c0.002 9.777 3.989 18.623 10.425 25.002l0.003 0.003 120.468 119.514-13.769 13.769-122.047-72.332c-5.133-3.091-11.329-4.92-17.952-4.92-0.001 0-0.002 0-0.003 0h-167.907c-9.699-14.029-16.513-30.786-19.198-48.889l-0.078-0.642zM243.654 692.296c0.021-44.718 36.277-80.961 80.998-80.961 44.734 0 80.998 36.264 80.998 80.998s-36.264 80.998-80.998 80.998c-0.013 0-0.026 0-0.039 0h0.002c-44.709-0.063-80.935-36.289-80.998-80.992v-0.006zM215.051 86.319v11.015h-76.078c-19.457 0-35.23 15.773-35.23 35.23s15.773 35.23 35.23 35.23v0h76.078v11.015c0 19.447 15.765 35.212 35.212 35.212s35.212-15.765 35.212-35.212v-11.015h633.919c19.457 0 35.23-15.773 35.23-35.23s-15.773-35.23-35.23-35.23v0h-633.882v-11.015c0-19.447-15.765-35.212-35.212-35.212s-35.212 15.765-35.212 35.212v0z" />
<glyph unicode="&#xe90e;" glyph-name="courses" data-tags="Forma -14" horiz-adv-x="943" d="M902.681 95.974c22.088 0 39.994 17.906 39.994 39.994s-17.906 39.994-39.994 39.994h-31.445c-14.165 13.034-23.010 31.661-23.010 52.355 0 2.69 0.149 5.345 0.44 7.957l-0.029-0.321c-0.263 2.295-0.413 4.955-0.413 7.65 0 20.689 8.846 39.313 22.961 52.294l0.051 0.046h31.445c22.088 0 39.994 17.906 39.994 39.994s-17.906 39.994-39.994 39.994h-190.453c6.171 7.005 9.938 16.258 9.938 26.39 0 22.096-17.912 40.008-40.008 40.008-11.963 0-22.7-5.251-30.032-13.574l-0.038-0.044c-23.229-27.611-56.274-46.313-93.694-50.708l-0.678-0.065h-1.004c-1.651-0.091-3.582-0.143-5.526-0.143-17.253 0-33.552 4.089-47.979 11.351l0.614-0.28c-7.434 3.197-15.908 6.802-26.724 10.407l-13.79 4.609-13.529-5.315c-7.768-3.048-14.31-5.91-20.071-8.4-15.086-7.839-32.939-12.437-51.866-12.437-2.427 0-4.836 0.076-7.225 0.225l0.327-0.016c-35.211 3.831-66.010 20.209-88.333 44.502l-0.091 0.101c-44.603 45.086-68.353 118.085-68.353 211.082-0.066 1.407-0.103 3.057-0.103 4.716 0 35.74 17.395 67.418 44.18 87.028l0.303 0.212c19.806-16.42 43.144-29.411 68.62-37.647l1.48-0.414c14.235-4.59 30.621-7.298 47.619-7.433h0.068c0.299-0.003 0.653-0.004 1.006-0.004 20.71 0 40.205 5.202 57.25 14.371l-0.645-0.317c19.201 10.831 35.387 24.658 48.513 41.043l0.253 0.326c8.797 1.495 16.499 3.495 23.931 6.074l-1.035-0.313c18.496 5.823 39.766 9.178 61.819 9.178 4.404 0 8.777-0.134 13.114-0.398l-0.596 0.029c83.555 0 133.436-43.525 133.436-116.413 0.004-3.018 0.343-5.955 0.98-8.779l-0.051 0.267c-0.241-17.99-1.436-35.417-3.539-52.564l0.231 2.312c-0.192-1.47-0.301-3.171-0.301-4.897 0-20.399 15.273-37.231 35.007-39.686l0.195-0.020c1.471-0.189 3.173-0.297 4.9-0.297 0.002 0 0.005 0 0.007 0v0c0.018 0 0.039 0 0.061 0 20.432 0 37.288 15.307 39.728 35.079l0.020 0.194c2.533 20.144 3.979 43.455 3.979 67.103 0 0.466-0.001 0.932-0.002 1.397v-0.072c-0.008 3.409-0.441 6.713-1.25 9.866l0.060-0.277c-4.535 112.175-89.205 186.847-213.274 186.847-1.322 0.014-2.884 0.022-4.448 0.022-18.5 0-36.737-1.129-54.644-3.322l2.15 0.215c12.335 24.472 28.468 45.211 47.874 62.325l0.223 0.193c8.6 7.386 14.013 18.272 14.013 30.423 0 22.109-17.922 40.031-40.031 40.031-9.958 0-19.067-3.636-26.071-9.653l0.053 0.045c-22.916-19.91-42.281-43.134-57.539-69.065l-0.705-1.296c-17.233 16.423-38.493 28.778-62.14 35.43l-1.047 0.252c-97.382 29.401-202.421-30.032-207.922-33.229v0c-11.967-7.070-19.867-19.903-19.867-34.582 0-7.401 2.009-14.333 5.51-20.281l-0.102 0.187 0.409-0.706c8.965-16.573 18.065-30.683 28.109-44.044l-0.641 0.891c-42.419-35.026-69.249-87.623-69.249-146.487 0-1.384 0.015-2.764 0.044-4.14l-0.003 0.205c0-134.216 42.818-213.237 82.366-257.58h-116.413c-55.167-0.168-99.848-44.823-100.058-99.964v-80.007c0-0.017 0-0.037 0-0.057 0-19.649 5.706-37.966 15.552-53.383l-0.239 0.4c-9.568-12.969-15.314-29.268-15.314-46.909 0-0.025 0-0.051 0-0.076v0.004-59.99c0.085-55.225 44.862-99.963 100.094-99.984h802.588c22.088 0 39.994 17.906 39.994 39.994s-17.906 39.994-39.994 39.994h-35.348c-7.894 9.394-12.69 21.622-12.69 34.97 0 1.795 0.087 3.57 0.256 5.321l-0.017-0.222c-0.148 1.508-0.233 3.26-0.233 5.031 0 13.344 4.794 25.569 12.753 35.046l-0.069-0.084h35.348zM374.884 839.35c27.765-8.4 34.307-20.74 36.463-24.792 3.432-7.639 5.432-16.558 5.432-25.944 0-1.569-0.056-3.126-0.166-4.667l0.012 0.207q0-1.561 0-3.122c-5.864-6.247-12.552-11.621-19.913-15.977l-0.418-0.229c-6.725-3.233-14.62-5.122-22.957-5.122-7.831 0-15.272 1.667-21.989 4.664l0.343-0.137c-34.581 13.44-63.014 36.351-82.903 65.55l-0.393 0.611c19.851 8.345 42.924 13.194 67.129 13.194 13.955 0 27.533-1.612 40.559-4.659l-1.2 0.236zM779.652 16.173h-679.594c0 0 0 0 0 0-11.051 0-20.013 8.948-20.034 19.995v59.807c2.766 0.006 5.461 0.29 8.065 0.825l-0.26-0.045c3.662-0.485 7.906-0.769 12.214-0.781h404.336c22.088 0 39.994 17.906 39.994 39.994s-17.906 39.994-39.994 39.994h-404.322c0 0 0 0 0 0-11.051 0-20.013 8.948-20.034 19.995v80.026c0.021 11.048 8.983 19.997 20.034 19.997 0 0 0 0 0 0h678.070c-6.046-17.919-9.534-38.557-9.534-60.009s3.489-42.090 9.93-61.376l-0.396 1.367h-73.594c-22.088 0-39.994-17.906-39.994-39.994s17.906-39.994 39.994-39.994h75.118c-3.051-12.010-4.802-25.797-4.802-39.994s1.751-27.984 5.049-41.158l-0.247 1.164z" />
<glyph unicode="&#xe90f;" glyph-name="zen" data-tags="Forma -13" horiz-adv-x="778" d="M135.996-64c-74.677 0.621-134.975 61.303-134.975 136.068 0 71.081 54.502 129.432 123.995 135.544l0.516 0.037 54.001 54.154v17.529h-49.877c-49.558 0.087-89.704 40.26-89.748 89.82v96.97c0 0.139-0.001 0.303-0.001 0.467 0 57.137 32.173 106.759 79.391 131.74l0.81 0.391c74.821 37.848 163.11 60.015 256.577 60.015 4.346 0 8.681-0.048 13.004-0.143l-0.644 0.011c3.663 0.083 7.979 0.131 12.307 0.131 93.471 0 181.765-22.166 259.912-61.529l-3.32 1.516c48.028-25.371 80.201-74.994 80.201-132.13 0-0.164 0-0.328-0.001-0.492v0.025-96.927c-0.043-49.577-40.211-89.759-89.779-89.824h-49.921v-17.529l54.039-54.192c70.412-5.711 125.391-64.261 125.391-135.653 0-75.074-60.798-135.948-135.843-136.072h-0.012zM624.834 146.315l-105.787-24.442c35.193-14.971 59.421-49.256 59.421-89.199 0-13.285-2.68-25.944-7.529-37.466l0.238 0.636h70.843c0.461-0.010 1.004-0.016 1.549-0.016 42.184 0 76.381 34.197 76.381 76.381s-34.197 76.381-76.381 76.381c-6.627 0-13.057-0.844-19.188-2.43l0.53 0.116zM88.525 131.688c-17.38-14.115-28.396-35.484-28.396-59.426 0-42.003 33.904-76.087 75.839-76.379h345.957c20.21 0.134 36.541 16.548 36.541 36.777 0 17.301-11.947 31.812-28.041 35.733l-0.252 0.052s-348.602 79.818-354.331 79.818c-17.94-0.007-34.42-6.254-47.388-16.689l0.146 0.114zM239.339 236.979l-39.871-39.909 189.539-43.766 189.539 43.766-40.024 39.947v42.315h-9.968c-0.185-0.001-0.405-0.001-0.625-0.001-52.67 0-101.125 18.047-139.518 48.295l0.481-0.365c-37.912-29.883-86.367-47.93-139.038-47.93-0.22 0-0.439 0-0.659 0.001h-9.819zM410.089 388.327c30.16-30.337 71.921-49.113 118.067-49.113 0.114 0 0.227 0 0.341 0h119.633c16.527 0.022 29.92 13.414 29.941 29.939v96.968c0.001 0.121 0.001 0.264 0.001 0.408 0 34.165-19.205 63.845-47.409 78.832l-0.483 0.234c-58.047 29.581-126.132 48.327-198.231 51.744l-1.123 0.042 41.284-123.928 124.463-35.593-16.422-57.591-154.709 44.301-36.434 109.416-36.472-109.416-154.786-44.263-16.46 57.591 124.463 35.593 41.284 123.89c-73.221-3.461-141.306-22.206-202.192-53.092l2.838 1.306c-28.707-15.215-47.93-44.906-47.93-79.086 0-0.136 0-0.273 0.001-0.409v0.021-96.927c0.022-16.527 13.414-29.92 29.939-29.941h119.653c0.101 0 0.22 0 0.339 0 46.141 0 87.897 18.776 118.043 49.105l21.165 21.165zM239.378 810.294c0.043 82.606 67.018 149.554 149.63 149.554 82.638 0 149.63-66.992 149.63-149.63s-66.992-149.63-149.63-149.63v0c-82.621 0.109-149.565 67.079-149.63 149.7v0.006zM299.222 810.294c0.022-49.571 40.212-89.748 89.786-89.748 49.587 0 89.786 40.198 89.786 89.786s-40.198 89.786-89.786 89.786v0c-49.574-0.065-89.742-40.246-89.786-89.82v-0.004z" />
<glyph unicode="&#xe910;" glyph-name="house" data-tags="Forma -12" horiz-adv-x="1068" d="M1056.112 488.864l-436.502 439.062c-22.067 19.898-51.438 32.070-83.652 32.070-32.015 0-61.222-12.023-83.353-31.8l0.121 0.106-1.732-1.619-438.723-437.706c-7.56-7.55-12.236-17.986-12.236-29.514 0-23.037 18.675-41.713 41.713-41.713 11.509 0 21.93 4.661 29.477 12.199l33.128 33.052v-360.194c0.128-92.121 74.794-166.76 166.913-166.846h150.215c23.037 0 41.711 18.675 41.711 41.711v0 339.94h146.028v-339.94c0-23.037 18.675-41.711 41.711-41.711v0h146.065c92.127 0.086 166.792 74.725 166.921 166.833v0.012c0 23.047-18.683 41.73-41.73 41.73s-41.73-18.683-41.73-41.73v0c-0.064-46.060-37.397-83.38-83.456-83.423h-104.32v339.94c0 23.037-18.675 41.711-41.711 41.711v0h-229.639c-23.037 0-41.711-18.675-41.711-41.711v0-339.94h-108.382c-46.064 0.043-83.396 37.362-83.46 83.417v442.154q0 0.64 0 1.242l321.193 320.44c7.236 6.201 16.711 9.975 27.067 9.975s19.831-3.774 27.124-10.022l-0.056 0.047 317.353-319.311v-235.813c0-23.047 18.683-41.73 41.73-41.73s41.73 18.683 41.73 41.73v0 151.75l32.978-33.203c7.561-7.613 18.034-12.325 29.608-12.325 23.045 0 41.726 18.682 41.726 41.726 0 11.471-4.629 21.861-12.12 29.404l0.002-0.002z" />
<glyph unicode="&#xe911;" glyph-name="person" data-tags="Forma -11" horiz-adv-x="1076" d="M37.962-64c-0.112-0.001-0.244-0.002-0.376-0.002-20.758 0-37.586 16.828-37.586 37.586 0 0.001 0 0.001 0 0.002v0c0.47 199.275 162.037 360.658 361.338 360.828h353.327c199.317-0.171 360.884-161.553 361.354-360.783v-0.045c0-0.001 0-0.001 0-0.002 0-20.758-16.828-37.586-37.586-37.586-0.132 0-0.264 0.001-0.396 0.002h0.020zM78.63 11.924h918.834c-19.382 140.293-138.505 247.167-282.591 247.167-0.047 0-0.093 0-0.14 0h-353.304c-144.084-0.131-263.187-106.917-282.626-245.66l-0.173-1.507zM248.069 673.067c0 0.089 0 0.195 0 0.301 0 159.092 128.969 288.061 288.061 288.061s288.061-128.969 288.061-288.061c0-159.039-128.884-287.975-287.903-288.061h-0.008c-0.134 0-0.292 0-0.451 0-158.926 0-287.76 128.835-287.76 287.76 0 0 0 0 0 0.001v0zM324.069 673.067c0-0.112 0-0.244 0-0.376 0-117.118 94.943-212.062 212.062-212.062s212.062 94.943 212.062 212.062c0 117.065-94.857 211.976-211.903 212.062h-0.008c-116.867-0.297-211.55-94.849-212.061-211.637v-0.049z" />
<glyph unicode="&#xe912;" glyph-name="notify" data-tags="Forma -10" horiz-adv-x="871" d="M435.712-64c56.476 0.193 102.207 45.924 102.4 102.381v0.019h-204.8c0.193-56.476 45.924-102.207 102.381-102.4h0.019zM768.91 243.2v281.6c0.002 0.371 0.002 0.811 0.002 1.251 0 156.031-108.434 286.736-254.057 320.868l-2.23 0.441v35.84c-2.281 40.64-35.793 72.732-76.8 72.732s-74.519-32.092-76.791-72.531l-0.009-0.201v-35.84c-148.051-34.424-256.685-165.225-256.685-321.399 0-0.408 0.001-0.816 0.002-1.224v0.063-281.6l-102.4-102.4v-51.2h871.481v51.2zM666.51 192h-461.426v332.8c2.039 125.836 104.526 227.062 230.656 227.062s228.617-101.226 230.654-226.871l0.002-0.191z" />
<glyph unicode="&#xe913;" glyph-name="tv" data-tags="Forma -9" horiz-adv-x="1070" d="M870.804-40.411l-36.815 78.421h-441.156c-0.61-0.033-1.323-0.052-2.041-0.052-22.115 0-40.044 17.928-40.044 40.044s17.928 40.044 40.044 40.044c0.718 0 1.432-0.019 2.141-0.056l-0.099 0.004h403.56l-38.533 82.014h-428.919l-108.779-239.793c-6.782-14.357-21.143-24.114-37.783-24.114-0.209 0-0.417 0.002-0.625 0.005h0.032c-5.996 0.006-11.705 1.231-16.894 3.44l0.283-0.107c-14.811 5.877-25.093 20.082-25.093 36.688 0 5.777 1.244 11.263 3.479 16.205l-0.1-0.248 94.355 208.289h-70.662c-0.993-0.022-2.163-0.034-3.335-0.034-89.014 0-161.452 70.973-163.812 159.417l-0.005 0.218v360.027c2.137 88.845 74.666 160.052 163.827 160.052 1.169 0 2.335-0.012 3.499-0.037l-0.174 0.003h325.972v39.991c0 23.079 18.709 41.788 41.788 41.788s41.788-18.709 41.788-41.788v0-39.991h325.972c0.99 0.021 2.156 0.034 3.325 0.034 89.16 0 161.69-71.206 163.823-159.853l0.004-0.198v-160.018c0-23.079-18.709-41.788-41.788-41.788s-41.788 18.709-41.788 41.788v0 160.018c-1.097 44.414-37.362 79.999-81.938 79.999-0.576 0-1.15-0.006-1.723-0.018l0.086 0.001h-735.52c-0.487 0.010-1.062 0.016-1.638 0.016-44.576 0-80.841-35.585-81.936-79.898l-0.002-0.102v-360.027c1.097-44.414 37.362-79.999 81.938-79.999 0.576 0 1.15 0.006 1.723 0.018l-0.086-0.001h735.468c0.487-0.010 1.062-0.016 1.638-0.016 44.576 0 80.841 35.585 81.936 79.898l0.002 0.102c0 23.079 18.709 41.788 41.788 41.788s41.788-18.709 41.788-41.788v0c-2.137-88.845-74.666-160.052-163.827-160.052-1.169 0-2.335 0.012-3.499 0.037l0.174-0.003h-53.114l97.531-207.612c2.293-4.84 3.632-10.516 3.632-16.505 0-16.357-9.99-30.382-24.201-36.305l-0.26-0.096c-5.049-2.238-10.938-3.541-17.132-3.541v0c-0.155-0.002-0.339-0.003-0.523-0.003-16.523 0-30.813 9.56-37.641 23.45l-0.109 0.246zM204.279 376.166c-7.4 7.077-12.001 17.029-12.001 28.055 0 11.252 4.791 21.386 12.444 28.472l0.025 0.023 207.82 195.792c7.679 7.171 18.023 11.573 29.395 11.573s21.716-4.403 29.42-11.597l-0.025 0.023 121.953-115.913 206.675 197.874c7.698 7.259 18.104 11.72 29.551 11.72s21.853-4.461 29.572-11.74l-0.021 0.020c7.538-7.094 12.233-17.136 12.233-28.275s-4.695-21.181-12.213-28.257l-0.020-0.019-236.095-225.993c-7.692-7.229-18.077-11.671-29.499-11.671s-21.807 4.442-29.521 11.692l0.023-0.021-122.213 115.809-178.451-168.245c-7.671-7.134-17.989-11.513-29.33-11.513-11.555 0-22.047 4.545-29.789 11.945l0.016-0.015z" />
<glyph unicode="&#xe914;" glyph-name="book" data-tags="Forma -8" horiz-adv-x="862" d="M822.003 416.004c22.089 0 39.995 17.907 39.995 39.995v0 464.005c0 22.089-17.907 39.995-39.995 39.995v0h-702.005c-66.241-0.080-119.918-53.757-119.998-119.99v-784.012c0.080-66.241 53.757-119.918 119.99-119.998h702.012c22.092 0 40.001 17.909 40.001 40.001s-17.909 40.001-40.001 40.001v0h-702.005c-22.092 0-40.001 17.909-40.001 40.001s17.909 40.001 40.001 40.001v0h702.005c22.089 0 39.995 17.907 39.995 39.995v0 119.998c0 22.092-17.909 40.001-40.001 40.001s-40.001-17.909-40.001-40.001v0-80.003h-541.999v230.047c0 22.092-17.909 40.001-40.001 40.001s-40.001-17.909-40.001-40.001v0-230.047h-39.995c-0.015 0-0.032 0-0.049 0-14.321 0-28.053-2.52-40.777-7.142l0.831 0.264v670.884c0.027 22.078 17.917 39.969 39.993 39.995h39.986v-315.993c0-0.007 0-0.016 0-0.025 0-22.089 17.907-39.995 39.995-39.995 9.152 0 17.586 3.074 24.326 8.246l-0.095-0.070 75.799 57.605 75.799-57.605c6.645-5.102 15.079-8.176 24.231-8.176 22.089 0 39.995 17.907 39.995 39.995 0 0.009 0 0.017 0 0.026v-0.001 315.993h341.976v-423.998c0-22.089 17.907-39.995 39.995-39.995v0zM360.006 644.637l-35.792 27.209c-6.639 5.088-15.063 8.153-24.202 8.153s-17.562-3.065-24.297-8.224l0.096 0.070-35.803-27.209v235.36h119.998z" />
<glyph unicode="&#xe915;" glyph-name="alarm-clock" data-tags="Forma 1" horiz-adv-x="945" d="M145.664-58.354c-11.801 7.087-19.576 19.818-19.576 34.365 0 7.561 2.1 14.631 5.749 20.659l-0.1-0.178 32.262 53.77q-13.12 11.346-25.595 23.766c-85.514 85.431-138.411 203.497-138.411 333.918 0 246.045 188.264 448.119 428.598 470.027l1.839 0.135v41.887c0.812 21.483 18.424 38.591 40.032 38.591s39.22-17.108 40.030-38.518l0.002-0.074v-41.511c244.119-19.974 434.67-223.017 434.67-470.567 0-83.345-21.6-161.645-59.507-229.608l1.228 2.398c-7.229-11.118-19.592-18.368-33.649-18.368-22.094 0-40.005 17.911-40.005 40.005 0 6.141 1.384 11.958 3.856 17.158l-0.104-0.242c30.603 54.593 48.626 119.809 48.626 189.233 0 216.784-175.738 392.523-392.523 392.523s-392.523-175.738-392.523-392.523c0-216.784 175.738-392.523 392.523-392.523 87.436 0 168.194 28.588 233.438 76.927l-1.061-0.751c6.562 4.883 14.825 7.818 23.775 7.818 14.55 0 27.288-7.757 34.304-19.361l0.101-0.179 50.060-83.989c3.532-5.847 5.623-12.909 5.623-20.46 0-22.111-17.925-40.036-40.036-40.036-14.561 0-27.306 7.773-34.312 19.396l-0.101 0.18-28.498 47.802c-69.499-42.279-153.536-67.306-243.418-67.306s-173.919 25.027-245.522 68.492l2.104-1.186-28.444-47.748c-7.115-11.794-19.859-19.559-34.416-19.559-7.56 0-14.63 2.094-20.663 5.733l0.18-0.101zM555.393 266.579l-113.24 112.917c-7.389 7.252-11.973 17.338-11.991 28.495v254.014c0.812 21.483 18.424 38.591 40.032 38.591s39.22-17.108 40.030-38.518l0.002-0.074v-237.449l101.518-101.411c7.004-7.198 11.323-17.038 11.323-27.888 0-22.094-17.911-40.005-40.005-40.005-10.743 0-20.497 4.234-27.683 11.125l0.014-0.013zM853.118 771.804l-108.723 90.442c-8.803 7.399-14.359 18.415-14.359 30.73 0 22.125 17.936 40.061 40.061 40.061 9.811 0 18.798-3.527 25.763-9.382l-0.061 0.050 108.616-90.603c7.993-7.339 12.985-17.837 12.985-29.501 0-22.094-17.911-40.005-40.005-40.005-9.172 0-17.623 3.086-24.371 8.277l0.094-0.070zM35.381 776.805c-5.772 6.879-9.277 15.829-9.277 25.597 0 12.311 5.568 23.321 14.323 30.649l0.063 0.051 108.723 90.603c6.893 5.784 15.86 9.297 25.648 9.297 22.106 0 40.027-17.921 40.027-40.027 0-12.318-5.564-23.337-14.317-30.679l-0.062-0.051-108.723-90.442c-6.903-5.804-15.89-9.331-25.7-9.331-12.301 0-23.307 5.544-30.655 14.271l-0.050 0.061z" />
<glyph unicode="&#xe916;" glyph-name="padlock" data-tags="Forma -7" horiz-adv-x="786" d="M730.593 546.427h-19.94v93.404c0.004 0.604 0.007 1.319 0.007 2.035 0 172.191-136.764 312.44-307.592 318.045l-0.514 0.013c-4.648 0-14.018 0-18.666 0-171.375-5.579-308.181-145.844-308.181-318.061 0-0.715 0.002-1.429 0.007-2.142l-0.001 0.11v-93.404h-19.94c-31.858-4.413-56.123-31.467-56.123-64.189 0-2.369 0.127-4.709 0.375-7.012l-0.025 0.286v-468.371c-0.22-2.007-0.345-4.334-0.345-6.691 0-32.779 24.238-59.897 55.77-64.409l0.348-0.041h674.671c31.879 4.552 56.118 31.67 56.118 64.45 0 2.357-0.125 4.684-0.37 6.976l0.025-0.285v468.371c0.224 2.024 0.352 4.37 0.352 6.747 0 32.669-24.188 59.689-55.632 64.129l-0.343 0.040zM456.452 241.776v-141.531c0-16.56-13.425-29.985-29.985-29.985v0h-66.642c-16.56 0-29.985 13.425-29.985 29.985v0 141.531c-15.335 15.488-24.809 36.802-24.809 60.33 0 44.908 34.518 81.753 78.469 85.453l0.314 0.021c4.648 0 14.018 0 18.666 0 44.268-3.672 78.805-40.506 78.805-85.407 0-23.566-9.514-44.911-24.911-60.401l0.004 0.004zM579.242 546.427h-372.118v93.404c0 102.778 83.318 186.097 186.097 186.097s186.097-83.318 186.097-186.097v0z" />
<glyph unicode="&#xe917;" glyph-name="star" data-tags="Forma -6" horiz-adv-x="1064" d="M794.947-64c-20.211 0-33.684 6.737-47.158 13.474l-215.579 114.526-215.579-114.526c-47.158-20.211-94.316-13.474-128 26.947-20.211 26.947-26.947 53.895-20.211 87.579l40.421 242.526-175.158 161.684c-20.211 13.474-26.947 40.421-33.684 60.632-6.737 60.632 33.684 107.789 87.579 121.263l242.526 33.684 107.789 215.579c13.474 20.211 26.947 40.421 47.158 47.158 53.895 26.947 114.526 6.737 141.474-47.158l107.789-222.316 242.526-33.684c20.211-6.737 40.421-13.474 60.632-33.684 40.421-40.421 40.421-107.789 0-148.211l-175.158-168.421 40.421-235.789c6.737-33.684 0-60.632-20.211-87.579-26.947-20.211-53.895-33.684-87.579-33.684zM532.211 131.368c13.474 0 20.211 0 26.947-6.737l215.579-114.526c13.474-6.737 33.684-6.737 47.158 6.737 6.737 6.737 13.474 20.211 6.737 33.684l-40.421 235.789c-6.737 20.211 0 40.421 20.211 60.632l175.158 168.421c13.474 13.474 13.474 40.421 0 53.895-6.737 6.737-13.474 6.737-20.211 13.474l-242.526 33.684c-20.211 0-40.421 13.474-47.158 33.684l-107.789 222.316c-6.737 20.211-33.684 26.947-47.158 13.474-13.474 0-20.211-6.737-20.211-13.474l-107.789-222.316c-6.737-20.211-26.947-33.684-47.158-33.684l-242.526-33.684c-20.211-6.737-33.684-26.947-33.684-47.158 0-6.737 6.737-13.474 13.474-20.211l175.158-168.421c13.474-13.474 20.211-40.421 13.474-60.632l-40.421-242.526c0-13.474 0-20.211 6.737-33.684 13.474-13.474 33.684-20.211 47.158-6.737l215.579 114.526c13.474 6.737 20.211 13.474 33.684 13.474z" />
<glyph unicode="&#xe918;" glyph-name="star-o" data-tags="Forma -5" horiz-adv-x="1065" d="M1041.446 495.941c14.279 13.944 23.135 33.387 23.135 54.899 0 38.393-28.206 70.198-65.026 75.823l-0.426 0.054-257.802 37.416c-11.216 1.684-20.493 8.697-25.288 18.332l-0.088 0.196-115.204 234.589c-12.665 25.543-38.562 42.793-68.488 42.793s-55.822-17.25-68.288-42.35l-0.199-0.444-115.348-234.516c-4.893-9.823-14.166-16.831-25.19-18.504l-0.187-0.023-257.586-37.56c-37.247-5.679-65.453-37.484-65.453-75.876 0-21.512 8.855-40.956 23.119-54.885l0.015-0.015 186.431-182.466c6.306-6.17 10.216-14.768 10.216-24.278 0-2.018-0.176-3.995-0.514-5.916l0.030 0.204-43.976-257.73c-0.772-4.047-1.213-8.701-1.213-13.459 0-18.615 6.758-35.652 17.954-48.79l-0.088 0.106c14.201-16.724 35.244-27.267 58.748-27.267 12.907 0 25.072 3.179 35.753 8.796l-0.421-0.202 230.696 121.692c4.558 2.384 9.956 3.783 15.68 3.783s11.122-1.399 15.87-3.873l-0.19 0.090 230.696-121.692c10.283-5.623 22.525-8.933 35.54-8.939h0.002c23.483 0.064 44.466 10.71 58.441 27.419l0.098 0.12c11.111 13.025 17.871 30.055 17.871 48.664 0 4.765-0.443 9.427-1.291 13.946l0.073-0.466-44.048 257.73c-0.308 1.717-0.484 3.694-0.484 5.712 0 9.511 3.91 18.108 10.21 24.272l0.006 0.006z" />
<glyph unicode="&#xe919;" glyph-name="Forma--4" data-tags="Forma -4" horiz-adv-x="782" d="M745.644 416.005c20.282 1.085 36.318 17.796 36.318 38.252 0 0.624-0.015 1.245-0.044 1.861l0.003-0.087v463.944c0.026 0.53 0.041 1.15 0.041 1.774 0 20.456-16.035 37.166-36.221 38.247l-0.096 0.004h-636.764c-60.873-3.258-108.999-53.412-108.999-114.805 0-1.836 0.043-3.663 0.128-5.478l-0.010 0.257v-783.998c-0.076-1.559-0.119-3.385-0.119-5.221 0-61.394 48.126-111.547 108.71-114.793l0.289-0.012h636.764c20.507 1.99 36.407 19.139 36.407 40s-15.9 38.010-36.243 39.987l-0.164 0.013h-636.764c-20.507 1.99-36.407 19.139-36.407 40s15.9 38.010 36.243 39.987l0.164 0.013h636.764c20.282 1.085 36.318 17.796 36.318 38.252 0 0.624-0.015 1.245-0.044 1.861l0.003-0.087v119.773c0.113 1.077 0.177 2.327 0.177 3.593 0 20.147-16.332 36.479-36.479 36.479s-36.479-16.332-36.479-36.479c0-1.265 0.064-2.515 0.19-3.747l-0.013 0.155v-80.001h-491.455v230.275c0.026 0.53 0.041 1.15 0.041 1.774 0 20.456-16.035 37.166-36.221 38.247l-0.096 0.004c-20.282-1.085-36.318-17.796-36.318-38.252 0-0.624 0.015-1.245 0.044-1.861l-0.003 0.087v-230.072h-36.428c-13.060-0.011-25.527-2.54-36.945-7.128l0.668 0.237v670.912c-0.026 0.53-0.041 1.15-0.041 1.774 0 20.456 16.035 37.166 36.221 38.247l0.096 0.004h36.276v-316.001c-0.004-0.213-0.006-0.463-0.006-0.715 0-14.926 8.068-27.968 20.081-35.002l0.191-0.104c4.666-2.616 10.24-4.157 16.174-4.157 8.402 0 16.083 3.090 21.968 8.195l-0.042-0.035 68.601 57.556 68.753-57.607c5.87-5.026 13.54-8.103 21.927-8.157h0.011c5.913 0.010 11.463 1.549 16.282 4.242l-0.17-0.087c12.204 7.138 20.272 20.18 20.272 35.106 0 0.251-0.002 0.502-0.007 0.752l0.001-0.038v316.051h310.123v-424.019c-0.025-0.514-0.039-1.116-0.039-1.721 0-20.473 16.062-37.194 36.272-38.25l0.094-0.004zM326.59 644.658l-32.73 27.207c-5.857 5.070-13.549 8.159-21.963 8.159s-16.107-3.089-22.006-8.195l0.042 0.036-32.071-27.207v235.341h108.728z" />
<glyph unicode="&#xe91b;" glyph-name="zen-2" data-tags="Forma -2" horiz-adv-x="1022" d="M255.632 17.358c-3.954 11.225-6.238 24.168-6.238 37.645 0 3.749 0.177 7.456 0.522 11.115l-0.036-0.467-46.875 16.005c-47.691 16.583-81.308 61.146-81.308 113.562 0 66.251 53.707 119.959 119.959 119.959 13.836 0 27.125-2.342 39.492-6.652l-0.842 0.255 21.201-7.169v176.469h-151.74c-0.015 0-0.033 0-0.051 0-41.901 0-77.095 28.714-86.98 67.538l-0.134 0.621-59.907 239.96c-1.975 7.030-3.11 15.102-3.11 23.44 0 49.644 40.244 89.888 89.888 89.888 42.466 0 78.054-29.448 87.457-69.037l0.122-0.611 42.902-172.024h146.933c0.113 0.001 0.246 0.001 0.379 0.001 24.569 0 46.803-9.996 62.858-26.143l66.691-66.691 86.554 72.244c15.386 12.829 35.365 20.618 57.164 20.618 0.075 0 0.151 0 0.226 0h161.814l42.874 171.996c9.457 40.291 45.090 69.831 87.622 69.831 49.644 0 89.888-40.244 89.888-89.888 0-8.394-1.151-16.52-3.303-24.228l0.151 0.632-59.907-239.988c-10.018-39.445-45.213-68.159-87.114-68.159-0.018 0-0.036 0-0.054 0h-151.848v-175.858l19.2 6.558c11.673 4.094 25.131 6.458 39.142 6.458 52.765 0 97.697-33.541 114.636-80.465l0.268-0.849c4.040-11.516 6.374-24.794 6.374-38.617 0-52.385-33.517-96.941-80.276-113.393l-0.842-0.258-48.459-16.449c0.216-2.696 0.338-5.837 0.338-9.007 0-66.279-53.729-120.008-120.008-120.008-13.776 0-27.010 2.321-39.332 6.594l0.843-0.254-101.252 34.566-102.003-34.621c-11.597-4.098-24.971-6.469-38.898-6.474h-0.002c-0.064 0-0.141 0-0.217 0-52.741 0-97.64 33.571-114.496 80.509l-0.266 0.848zM759.393 252.011l-407.677-139.153c-24.925-7.671-42.728-30.493-42.728-57.474 0-33.147 26.871-60.018 60.018-60.018 7.679 0 15.020 1.442 21.77 4.070l-0.409-0.14 409.706 139.153c23.802 8.349 40.563 30.626 40.563 56.817 0 6.915-1.168 13.556-3.318 19.739l0.128-0.422c-8.884 23.934-31.524 40.679-58.076 40.679-0.097 0-0.193 0-0.289-0.001h0.015c-0.031 0-0.068 0-0.104 0-7.016 0-13.753-1.191-20.022-3.381l0.426 0.129zM604.514 8.688l27.508-9.392c5.766-2.035 12.415-3.211 19.339-3.211 26.178 0 48.431 16.806 56.557 40.218l0.127 0.42c0.746 2.114 1.456 4.735 1.991 7.418l0.065 0.39zM184.944 214.583c-2.022-5.761-3.19-12.402-3.19-19.317 0-26.191 16.761-48.467 40.142-56.688l0.421-0.129 47.792-16.31c14.965 21.94 36.326 38.542 61.379 47.253l0.861 0.261 85.609 29.231-156.908 53.099c-5.78 2.043-12.446 3.224-19.387 3.224-26.183 0-48.443-16.797-56.591-40.204l-0.127-0.42zM903.464 815.29l-48.542-194.502c-3.35-13.154-15.089-22.727-29.064-22.729h-185.222c-0.039 0-0.085 0-0.131 0-7.22 0-13.832-2.605-18.946-6.927l0.043 0.036-260.161-217.12v-92.722l149.739-50.682 149.795 51.126v226.29c0 0.008 0 0.018 0 0.028 0 16.548 13.407 29.965 29.952 29.981h181.722c0.014 0 0.029 0 0.045 0 13.957 0 25.68 9.563 28.974 22.494l0.045 0.207 59.907 239.96c0.569 2.185 0.895 4.693 0.895 7.278 0 13.975-9.544 25.722-22.471 29.076l-0.209 0.046c-2.166 0.565-4.652 0.889-7.213 0.889-0.014 0-0.027 0-0.041 0h0.002c-13.98-0.028-25.721-9.585-29.074-22.52l-0.046-0.209zM82.608 837.13c-13.147-3.404-22.7-15.16-22.7-29.148 0-2.575 0.324-5.074 0.933-7.459l-0.045 0.208 59.907-239.96c3.339-13.138 15.062-22.701 29.019-22.701 0.006 0 0.012 0 0.019 0h181.72c16.546-0.016 29.953-13.433 29.953-29.981v0-55.933l88.915 74.328-62.741 62.824c-5.314 5.403-12.697 8.758-20.863 8.78h-170.166c-13.975 0.002-25.714 9.575-29.019 22.522l-0.045 0.207-48.57 194.502c-3.399 13.144-15.139 22.701-29.117 22.729h-0.003c-2.561-0.009-5.039-0.343-7.402-0.963l0.205 0.046zM361.441 808.038c0.158 82.594 67.15 149.489 149.767 149.489 82.714 0 149.767-67.053 149.767-149.767s-67.053-149.767-149.767-149.767v0c-82.421 0.963-148.961 67.601-149.766 149.968l-0.001 0.077zM421.348 808.038c0-49.628 40.232-89.86 89.86-89.86s89.86 40.232 89.86 89.86v0c0.018 0.665 0.028 1.449 0.028 2.235 0 49.644-40.244 89.888-89.888 89.888s-89.888-40.244-89.888-89.888c0-0.786 0.010-1.569 0.030-2.35l-0.002 0.115z" />
<glyph unicode="&#xe91c;" glyph-name="zen-1" data-tags="Forma -1" horiz-adv-x="1023" d="M202.269-64c-0.4-0.006-0.872-0.009-1.345-0.009-54.232 0-98.196 43.964-98.196 98.196 0 38.29 21.915 71.461 53.887 87.655l0.56 0.257 174.503 86.335v166.882c-5.357-5.843-8.648-9.388-18.886-20.565-23.477-25.586-50.667-47.265-80.822-64.312l-1.636-0.851c-40.622-22.531-106.734-64.61-110.047-66.565-11.467-6.73-25.255-10.705-39.971-10.705-44.168 0-79.973 35.805-79.973 79.973 0 25.603 12.032 48.396 30.749 63.034l0.176 0.133c1.040 0.811 2.214 1.546 3.46 2.157l0.118 0.052c11.884 5.754 117.767 64.157 154.954 83.242 23.381 38.656 96.86 160.333 96.86 160.333 13.303 21.777 36.151 36.594 62.579 38.639l0.275 0.017h0.994c0.182 0.016 0.394 0.026 0.607 0.026s0.425-0.009 0.635-0.028l-0.027 0.002 318.203-0.166c0.5 0.048 1.082 0.076 1.669 0.076 1.226 0 2.424-0.12 3.583-0.349l-0.117 0.019c26.115-2.418 48.375-17.009 61.274-37.976l0.199-0.348s73.512-121.589 96.893-160.244c26.584-13.651 158.179-85.153 158.577-85.451 19.098-14.764 31.276-37.678 31.276-63.438 0-44.168-35.805-79.973-79.973-79.973-14.89 0-28.83 4.070-40.768 11.157l0.369-0.203c-3.457 2.032-69.293 43.968-110.080 66.587-31.557 17.704-58.547 39.166-81.64 64.268l-0.21 0.232-19.505 21.239v-166.904l174.58-86.357c32.315-16.55 54.049-49.624 54.049-87.774 0-54.287-44.009-98.296-98.296-98.296-0.302 0-0.604 0.001-0.905 0.004h0.046zM491.634-23.997h329.313c0.391-0.009 0.851-0.015 1.313-0.015 32.139 0 58.193 26.054 58.193 58.193 0 22.641-12.93 42.262-31.808 51.882l-0.33 0.153-181.483 89.792h-310.427l-181.483-89.77c-19.111-9.823-31.958-29.403-31.958-51.984 0-32.176 26.084-58.26 58.26-58.26 0.363 0 0.726 0.003 1.087 0.010l-0.054-0.001h100.273c-6.76 11.484-10.753 25.3-10.753 40.047 0 44.15 35.786 79.942 79.935 79.951h219.786c11.047 0 20.002-8.955 20.002-20.002s-8.955-20.002-20.002-20.002v0h-99.864zM331.743 16.006c0.013-22.076 17.896-39.972 39.967-40.003h79.943v79.995h-79.929c-22.075-0.025-39.962-17.917-39.981-39.99v-0.002zM371.713 216.011h279.801v384.039h-39.97v-60.071c0-55.202-44.75-99.953-99.953-99.953s-99.953 44.75-99.953 99.953v0 60.192h-39.97zM691.484 434.437l48.938-53.29c20.439-22.223 44.112-41.049 70.361-55.841l1.428-0.74c41.362-22.939 106.657-64.478 111.085-67.161 5.773-3.425 12.725-5.449 20.15-5.449 22.081 0 39.981 17.9 39.981 39.981 0 12.36-5.609 23.41-14.42 30.744l-0.065 0.052c-20.156 10.238-127.619 69.58-158.577 85.042-3.419 1.735-6.194 4.308-8.123 7.456l-0.050 0.087c-19.251 31.841-99.831 165.248-99.831 165.248-2.866 4.672-6.498 8.582-10.762 11.671l-0.116 0.080zM320.864 580.534s-80.625-133.384-99.82-165.225c-1.975-3.235-4.747-5.808-8.049-7.491l-0.113-0.052c-31.156-15.584-138.244-74.738-158.577-85.042-8.768-7.384-14.301-18.367-14.301-30.643 0-22.081 17.9-39.981 39.981-39.981 7.395 0 14.322 2.008 20.264 5.508l-0.187-0.102c3.998 2.452 70.088 44.421 110.964 67.095 27.843 15.681 51.659 34.662 72.042 56.848l0.189 0.208 0.121 0.155 48.364 52.671v157.936c-4.375-3.221-8.005-7.172-10.777-11.705l-0.102-0.179zM451.664 540.001c-0.004-0.242-0.006-0.528-0.006-0.814 0-33.115 26.845-59.96 59.96-59.96s59.96 26.845 59.96 59.96c0 0.286-0.002 0.572-0.006 0.857v-0.043 60.093l-119.91 0.055zM657.367 61.863c-3.6 3.61-5.826 8.591-5.826 14.093 0 11.022 8.935 19.957 19.957 19.957s19.957-8.935 19.957-19.957c0-11.022-8.935-19.957-19.957-19.957-0.002 0-0.004 0-0.006 0v0c-5.518 0.005-10.512 2.246-14.126 5.864v0zM371.724 820c0.057 77.222 62.67 139.801 139.9 139.801 77.265 0 139.9-62.636 139.9-139.9s-62.636-139.9-139.9-139.9c-0.004 0-0.008 0-0.012 0h0.001c-77.247 0.126-139.827 62.744-139.889 139.994v0.006zM411.694 820c0.038-55.162 44.764-99.864 99.93-99.864 55.19 0 99.93 44.74 99.93 99.93s-44.74 99.93-99.93 99.93v0c-55.18-0.082-99.887-44.811-99.93-99.993v-0.004z" />
<glyph unicode="&#xe91d;" glyph-name="search" data-tags="ic_search" d="M661.333 362.667h-34.133l-12.8 12.8c42.359 47.068 68.268 109.673 68.268 178.33 0 0.306-0.001 0.612-0.002 0.918v-0.047c0 153.167-124.166 277.333-277.333 277.333s-277.333-124.166-277.333-277.333c0-153.167 124.166-277.333 277.333-277.333v0c0.258-0.001 0.564-0.001 0.87-0.001 68.657 0 131.262 25.909 178.572 68.483l-0.242-0.215 12.8-12.8v-34.133l213.333-213.333 64 64zM405.333 362.667c-106.039 0-192 85.961-192 192s85.961 192 192 192c106.039 0 192-85.961 192-192v0c0.001-0.241 0.002-0.527 0.002-0.812 0-105.591-85.598-191.189-191.189-191.189-0.286 0-0.571 0.001-0.856 0.002h0.044z" />
</font>
</defs>
</svg>
